<svg width="1600" height="900" viewBox="0 0 1600 900" fill="none" xmlns="http://www.w3.org/2000/svg">
  <rect width="1600" height="900" fill="#F8FAFC"/>
  <rect x="82" y="84" width="1436" height="732" rx="30" fill="white" stroke="#D9E2EC" stroke-width="2"/>
  <text x="132" y="174" fill="#0F172A" font-family="Arial, Helvetica, sans-serif" font-size="54" font-weight="700">
    Model Context Protocol
  </text>
  <rect x="150" y="320" width="270" height="150" rx="24" fill="#E0F2FE" stroke="#7DD3FC"/>
  <text x="205" y="384" fill="#0369A1" font-family="Arial, Helvetica, sans-serif" font-size="28" font-weight="700">Cliente</text>
  <text x="182" y="426" fill="#334155" font-family="Arial, Helvetica, sans-serif" font-size="22">editor, agente ou app</text>
  <rect x="530" y="260" width="540" height="270" rx="28" fill="#0F172A"/>
  <text x="610" y="338" fill="white" font-family="Arial, Helvetica, sans-serif" font-size="34" font-weight="700">Servidor MCP</text>
  <text x="610" y="390" fill="#CBD5E1" font-family="Arial, Helvetica, sans-serif" font-size="24">tools • resources • prompts</text>
  <text x="610" y="430" fill="#CBD5E1" font-family="Arial, Helvetica, sans-serif" font-size="24">descoberta • chamada • resposta</text>
  <rect x="1180" y="176" width="250" height="120" rx="22" fill="#EFF6FF" stroke="#BFDBFE"/>
  <text x="1250" y="226" fill="#1D4ED8" font-family="Arial, Helvetica, sans-serif" font-size="24" font-weight="700">API</text>
  <text x="1218" y="264" fill="#334155" font-family="Arial, Helvetica, sans-serif" font-size="20">consultas externas</text>
  <rect x="1180" y="356" width="250" height="120" rx="22" fill="#ECFDF5" stroke="#86EFAC"/>
  <text x="1221" y="406" fill="#15803D" font-family="Arial, Helvetica, sans-serif" font-size="24" font-weight="700">Banco</text>
  <text x="1217" y="444" fill="#334155" font-family="Arial, Helvetica, sans-serif" font-size="20">dados estruturados</text>
  <rect x="1180" y="536" width="250" height="120" rx="22" fill="#FEFCE8" stroke="#FDE68A"/>
  <text x="1224" y="586" fill="#A16207" font-family="Arial, Helvetica, sans-serif" font-size="24" font-weight="700">Arquivos</text>
  <text x="1211" y="624" fill="#334155" font-family="Arial, Helvetica, sans-serif" font-size="20">docs e recursos locais</text>
  <path d="M420 395H530" stroke="#2563EB" stroke-width="10" stroke-linecap="round"/>
  <path d="M1070 236H1180" stroke="#2563EB" stroke-width="10" stroke-linecap="round"/>
  <path d="M1070 416H1180" stroke="#16A34A" stroke-width="10" stroke-linecap="round"/>
  <path d="M1070 596H1180" stroke="#CA8A04" stroke-width="10" stroke-linecap="round"/>
  <text x="155" y="718" fill="#475569" font-family="Arial, Helvetica, sans-serif" font-size="28">
    Camada de integração mais organizada entre IA e ferramentas externas
  </text>
</svg>
